@startuml
title All Patterns - Class Diagram
left to right direction
class "std::string" as C_0001275076681856179721
class C_0001275076681856179721 {
__
}
class "std::unique_ptr<Coffee>" as C_0012205464901123416994
class C_0012205464901123416994 {
__
}
class "std::vector<Block *>" as C_0010617914086297329148
class C_0010617914086297329148 {
__
}
class "std::unique_ptr<Product>" as C_0007529584982605911664
class C_0007529584982605911664 {
__
}
class "std::function<std::unique_ptr<Product>()>" as C_0016880707531962026280
class C_0016880707531962026280 {
__
}
class "std::unordered_map<std::string,std::function<std::unique_ptr<Product>()>>" as C_0009434412381319524274
class C_0009434412381319524274 {
__
}
class "std::map<std::string,int>" as C_0006156734009172850642
class C_0006156734009172850642 {
__
}
abstract "USB" as C_0009686583944728772090
abstract C_0009686583944728772090 {
{abstract} +charge() = 0 : void
__
}
abstract "TypeC" as C_0007209836973378412225
abstract C_0007209836973378412225 {
{abstract} +chargeWithTypeC() = 0 : void
__
}
class "TypeCAdapter" as C_0009112793943760455667
class C_0009112793943760455667 {
+TypeCAdapter(TypeC * type) : void
..
+charge() : void
__
-typeC : TypeC *
}
class "NewComputer" as C_0011668480552695344021
class C_0011668480552695344021 {
+chargeWithTypeC() : void
__
}
class "AdapterCharger" as C_0005269349327123089906
class C_0005269349327123089906 {
+charge() : void
__
}
class "Bike" as C_0004996708347843969283
class C_0004996708347843969283 {
+setFrame(const std::string & frame) : void
+setTires(const std::string & tires) : void
__
+frame : std::string
+tires : std::string
}
abstract "BikeBuilder" as C_0010407198956591332271
abstract C_0010407198956591332271 {
{abstract} +buildFrame() = 0 : void
{abstract} +buildTires() = 0 : void
{abstract} +getResult() = 0 : Bike
__
}
class "MountainBikeBuilder" as C_0003777696358735055489
class C_0003777696358735055489 {
+buildFrame() : void
+buildTires() : void
+getResult() : Bike
__
-bike : Bike
}
class "RoadBikeBuilder" as C_0007115713506178905031
class C_0007115713506178905031 {
+buildFrame() : void
+buildTires() : void
+getResult() : Bike
__
-bike : Bike
}
class "BikeDirector" as C_0017780427895237687892
class C_0017780427895237687892 {
+construct(BikeBuilder & builder) : Bike
__
}
abstract "Coffee" as C_0010778378021652943332
abstract C_0010778378021652943332 {
+~Coffee() : void
..
{abstract} +brew() = 0 : void
__
}
class "BlackCoffee" as C_0000793528364218096195
class C_0000793528364218096195 {
+brew() : void
__
}
class "Latte" as C_0017539514008203411354
class C_0017539514008203411354 {
+brew() : void
__
}
class "Decorator" as C_0011924170768383986619
class C_0011924170768383986619 {
+Decorator(std::unique_ptr<Coffee> coffee) : void
..
+brew() : void
__
#coffee : std::unique_ptr<Coffee>
}
class "MilkDecorator" as C_0015656063925627831788
class C_0015656063925627831788 {
+MilkDecorator(std::unique_ptr<Coffee> coffee) : void
..
+brew() : void
__
}
class "SugarDecorator" as C_0011412627404096032363
class C_0011412627404096032363 {
+SugarDecorator(std::unique_ptr<Coffee> coffee) : void
..
+brew() : void
__
}
abstract "Block" as C_0001951095593539343111
abstract C_0001951095593539343111 {
+~Block() constexpr = default : void
..
{abstract} +produce() = 0 : void
__
}
abstract "BlockFactory" as C_0011340176577848270373
abstract C_0011340176577848270373 {
+~BlockFactory() constexpr = default : void
..
{abstract} +createBlock() = 0 : Block *
__
}
class "SquareBlock" as C_0001396058128155892773
class C_0001396058128155892773 {
+produce() : void
__
}
class "SquareBlockFactory" as C_0014232187933599446214
class C_0014232187933599446214 {
+createBlock() : Block *
__
}
class "CircleBlock" as C_0005370234941148262030
class C_0005370234941148262030 {
+produce() : void
__
}
class "CircleBlockFactory" as C_0001269899360304888438
class C_0001269899360304888438 {
+createBlock() : Block *
__
}
class "BlockFactorySystem" as C_0008444036734146825933
class C_0008444036734146825933 {
+~BlockFactorySystem() : void
..
+getBlocks() const : const std::vector<Block *> &
+produceBlocks(BlockFactory * factory, int quantity) : void
__
-blocks : std::vector<Block *>
}
abstract "Product" as C_0017206861160651201512
abstract C_0017206861160651201512 {
+~Product() constexpr = default : void
..
{abstract} +use() = 0 : void
__
}
class "Factory" as C_0008686340051264375667
class C_0008686340051264375667 {
+create(const std::string & name) : std::unique_ptr<Product>
{static} +instance() : Factory &
+registerProduct(const std::string & name, Creator creator) : void
__
-creators : std::unordered_map<std::string,Creator>
}
class "Registrar<T>" as C_0007073154736803525692
class C_0007073154736803525692 {
+Registrar(const std::string & name) : void
__
}
class "ProductA" as C_0004056054318527312176
class C_0004056054318527312176 {
+use() : void
__
}
class "ProductB" as C_0017183060334442220715
class C_0017183060334442220715 {
+use() : void
__
}
abstract "Chair" as C_0009893547624247088707
abstract C_0009893547624247088707 {
{abstract} +showInfo() = 0 : void
__
}
class "ModernChair" as C_0009212102631536642355
class C_0009212102631536642355 {
+showInfo() : void
__
}
class "ClassicalChair" as C_0017194396331098379228
class C_0017194396331098379228 {
+showInfo() : void
__
}
abstract "Sofa" as C_0016091917377650331044
abstract C_0016091917377650331044 {
{abstract} +displayInfo() = 0 : void
__
}
class "ModernSofa" as C_0005557706449501939337
class C_0005557706449501939337 {
+displayInfo() : void
__
}
class "ClassicalSofa" as C_0015751649564811115835
class C_0015751649564811115835 {
+displayInfo() : void
__
}
abstract "FurnitureFactory" as C_0016727557916715340995
abstract C_0016727557916715340995 {
{abstract} +createChair() = 0 : Chair *
{abstract} +createSofa() = 0 : Sofa *
__
}
class "ModernFurnitureFactory" as C_0017329938831384554316
class C_0017329938831384554316 {
+createChair() : Chair *
+createSofa() : Sofa *
__
}
class "ClassicalFurnitureFactory" as C_0003202028449522708998
class C_0003202028449522708998 {
+createChair() : Chair *
+createSofa() : Sofa *
__
}
abstract "Prototype" as C_0001964401034893898567
abstract C_0001964401034893898567 {
+~Prototype() : void
..
{abstract} +clone() const = 0 : Prototype *
{abstract} +getDetails() const = 0 : std::string
__
}
class "RectanglePrototype" as C_0016207614319459449262
class C_0016207614319459449262 {
+RectanglePrototype(std::string color, int width, int height) : void
..
+clone() const : Prototype *
+getDetails() const : std::string
__
-color : std::string
-height : int
-width : int
}
abstract "HomePurchase" as C_0002862302298571893829
abstract C_0002862302298571893829 {
{abstract} +requestPurchase(int area) = 0 : void
__
}
class "HomeBuyer" as C_0014205043442220166183
class C_0014205043442220166183 {
+requestPurchase(int area) : void
__
}
class "HomeAgentProxy" as C_0000784596493017976666
class C_0000784596493017976666 {
+requestPurchase(int area) : void
__
-homeBuyer : HomeBuyer
}
class "ShoppingCarManager" as C_0012494928071542318165
class C_0012494928071542318165 {
-ShoppingCarManager() : void
..
+addToCart(const string & itemName, int quantity) : void
{static} +getInstance() : ShoppingCarManager &
+viewCart() const : void
__
-cart : map<string,int>
}
C_0012205464901123416994 ..> C_0010778378021652943332
C_0010617914086297329148 ..> C_0001951095593539343111
C_0007529584982605911664 ..> C_0017206861160651201512
C_0016880707531962026280 ..> C_0007529584982605911664
C_0009434412381319524274 ..> C_0001275076681856179721
C_0009434412381319524274 ..> C_0016880707531962026280
C_0006156734009172850642 ..> C_0001275076681856179721
C_0009112793943760455667 --> C_0007209836973378412225 : -typeC
C_0009686583944728772090 <|-- C_0009112793943760455667
C_0007209836973378412225 <|-- C_0011668480552695344021
C_0009686583944728772090 <|-- C_0005269349327123089906
C_0004996708347843969283 o-- C_0001275076681856179721 : +frame
C_0004996708347843969283 o-- C_0001275076681856179721 : +tires
C_0010407198956591332271 ..> C_0004996708347843969283
C_0003777696358735055489 o-- C_0004996708347843969283 : -bike
C_0010407198956591332271 <|-- C_0003777696358735055489
C_0007115713506178905031 o-- C_0004996708347843969283 : -bike
C_0010407198956591332271 <|-- C_0007115713506178905031
C_0017780427895237687892 ..> C_0010407198956591332271
C_0017780427895237687892 ..> C_0004996708347843969283
C_0010778378021652943332 <|-- C_0000793528364218096195
C_0010778378021652943332 <|-- C_0017539514008203411354
C_0011924170768383986619 o-- C_0012205464901123416994 : #coffee
C_0010778378021652943332 <|-- C_0011924170768383986619
C_0015656063925627831788 ..> C_0012205464901123416994
C_0015656063925627831788 ..> C_0010778378021652943332
C_0011924170768383986619 <|-- C_0015656063925627831788
C_0011412627404096032363 ..> C_0012205464901123416994
C_0011412627404096032363 ..> C_0010778378021652943332
C_0011924170768383986619 <|-- C_0011412627404096032363
C_0011340176577848270373 ..> C_0001951095593539343111
C_0001951095593539343111 <|-- C_0001396058128155892773
C_0014232187933599446214 ..> C_0001951095593539343111
C_0011340176577848270373 <|-- C_0014232187933599446214
C_0001951095593539343111 <|-- C_0005370234941148262030
C_0001269899360304888438 ..> C_0001951095593539343111
C_0011340176577848270373 <|-- C_0001269899360304888438
C_0008444036734146825933 ..> C_0011340176577848270373
C_0008444036734146825933 ..> C_0001951095593539343111
C_0008444036734146825933 o-- C_0010617914086297329148 : -blocks
C_0008686340051264375667 ..> C_0001275076681856179721
C_0008686340051264375667 ..> C_0016880707531962026280
C_0008686340051264375667 ..> C_0007529584982605911664
C_0008686340051264375667 ..> C_0017206861160651201512
C_0008686340051264375667 o-- C_0009434412381319524274 : -creators
C_0007073154736803525692 ..> C_0001275076681856179721
C_0017206861160651201512 <|-- C_0004056054318527312176
C_0017206861160651201512 <|-- C_0017183060334442220715
C_0009893547624247088707 <|-- C_0009212102631536642355
C_0009893547624247088707 <|-- C_0017194396331098379228
C_0016091917377650331044 <|-- C_0005557706449501939337
C_0016091917377650331044 <|-- C_0015751649564811115835
C_0016727557916715340995 ..> C_0009893547624247088707
C_0016727557916715340995 ..> C_0016091917377650331044
C_0017329938831384554316 ..> C_0009893547624247088707
C_0017329938831384554316 ..> C_0016091917377650331044
C_0016727557916715340995 <|-- C_0017329938831384554316
C_0003202028449522708998 ..> C_0009893547624247088707
C_0003202028449522708998 ..> C_0016091917377650331044
C_0016727557916715340995 <|-- C_0003202028449522708998
C_0001964401034893898567 ..> C_0001275076681856179721
C_0016207614319459449262 o-- C_0001275076681856179721 : -color
C_0001964401034893898567 <|-- C_0016207614319459449262
C_0002862302298571893829 <|-- C_0014205043442220166183
C_0000784596493017976666 o-- C_0014205043442220166183 : -homeBuyer
C_0002862302298571893829 <|-- C_0000784596493017976666
C_0012494928071542318165 ..> C_0001275076681856179721
C_0012494928071542318165 o-- C_0006156734009172850642 : -cart

'Generated with clang-uml, version 0.6.2
'LLVM version Ubuntu clang version 18.1.3 (1ubuntu1)
@enduml
