@startuml
title Bridge Pattern - Class Diagram
left to right direction
abstract "TV" as C_0018315640407331722211
abstract C_0018315640407331722211 {
{abstract} +switchChannel() = 0 : void
{abstract} +turnOff() = 0 : void
{abstract} +turnOn() = 0 : void
__
}
class "SonyTV" as C_0002900957621751907033
class C_0002900957621751907033 {
+switchChannel() : void
+turnOff() : void
+turnOn() : void
__
}
class "TCLTV" as C_0012177098384884771389
class C_0012177098384884771389 {
+switchChannel() : void
+turnOff() : void
+turnOn() : void
__
}
abstract "RemoteControl" as C_0003843418371744895506
abstract C_0003843418371744895506 {
+RemoteControl(TV * tv) : void
..
{abstract} +performOperation() = 0 : void
__
#tv : TV *
}
class "PowerOperation" as C_0003844478057359580475
class C_0003844478057359580475 {
+PowerOperation(TV * tv) : void
..
+performOperation() : void
__
}
class "OffOperation" as C_0016361693177410835583
class C_0016361693177410835583 {
+OffOperation(TV * tv) : void
..
+performOperation() : void
__
}
class "ChannelSwitchOperation" as C_0010642717336726423937
class C_0010642717336726423937 {
+ChannelSwitchOperation(TV * tv) : void
..
+performOperation() : void
__
}
C_0018315640407331722211 <|-- C_0002900957621751907033
C_0018315640407331722211 <|-- C_0012177098384884771389
C_0003843418371744895506 --> C_0018315640407331722211 : #tv
C_0003844478057359580475 ..> C_0018315640407331722211
C_0003843418371744895506 <|-- C_0003844478057359580475
C_0016361693177410835583 ..> C_0018315640407331722211
C_0003843418371744895506 <|-- C_0016361693177410835583
C_0010642717336726423937 ..> C_0018315640407331722211
C_0003843418371744895506 <|-- C_0010642717336726423937

'Generated with clang-uml, version 0.6.2
'LLVM version Ubuntu clang version 18.1.3 (1ubuntu1)
@enduml
