@startuml
title Template Method Pattern - Class Diagram
left to right direction
abstract "LeaveHandler" as C_0014489813489826777133
abstract C_0014489813489826777133 {
+~LeaveHandler() constexpr = default : void
..
{abstract} +handleRequest(const std::string & name, int days) = 0 : void
__
}
class "Director" as C_0003669864166926441532
class C_0003669864166926441532 {
+handleRequest(const std::string & name, int days) : void
__
{static} -MAX_DAYS : const int
}
class "Manager" as C_0003748200867182679456
class C_0003748200867182679456 {
+Manager(std::shared_ptr<LeaveHandler> next) : void
..
+handleRequest(const std::string & name, int days) : void
__
{static} -MAX_DAYS : const int
-next_ : std::shared_ptr<LeaveHandler>
}
class "Supervisor" as C_0017255139508221541715
class C_0017255139508221541715 {
+Supervisor(std::shared_ptr<LeaveHandler> next) : void
..
+handleRequest(const std::string & name, int days) : void
__
{static} -MAX_DAYS : const int
-next_ : std::shared_ptr<LeaveHandler>
}
class "LeaveRequest" as C_0012418047137201082095
class C_0012418047137201082095 {
+LeaveRequest(std::string name, int days) : void
..
+getEmployeeName() const : const std::string &
+getNumberOfDays() const : int
__
-days_ : int
-employeeName_ : std::string
}
C_0014489813489826777133 <|-- C_0003669864166926441532
C_0003748200867182679456 --> C_0014489813489826777133 : -next_
C_0014489813489826777133 <|-- C_0003748200867182679456
C_0017255139508221541715 --> C_0014489813489826777133 : -next_
C_0014489813489826777133 <|-- C_0017255139508221541715

'Generated with clang-uml, version 0.6.2
'LLVM version Ubuntu clang version 18.1.3 (1ubuntu1)
@enduml
