@startuml
title Command Pattern - Class Diagram
left to right direction
class "std::string" as C_0001275076681856179721
class C_0001275076681856179721 {
__
}
abstract "Command" as C_0015525581018586802988
abstract C_0015525581018586802988 {
+~Command() constexpr = default : void
..
{abstract} +execute() = 0 : void
__
}
class "OrderCommand" as C_0015182459084332202624
class C_0015182459084332202624 {
+OrderCommand(const std::string & drinkName, DrinkMaker * receiver) : void
..
+execute() : void
__
-drinkName : std::string
-receiver : DrinkMaker *
}
class "DrinkMaker" as C_0009068261786506970121
class C_0009068261786506970121 {
+makeDrink(const std::string & drinkName) : void
__
}
class "OrderMachine" as C_0003645067399024101375
class C_0003645067399024101375 {
+executeOrder() : void
+setCommand(Command * command) : void
__
-command : Command *
}
C_0015182459084332202624 o-- C_0001275076681856179721 : -drinkName
C_0015182459084332202624 --> C_0009068261786506970121 : -receiver
C_0015525581018586802988 <|-- C_0015182459084332202624
C_0009068261786506970121 ..> C_0001275076681856179721
C_0003645067399024101375 --> C_0015525581018586802988 : -command

'Generated with clang-uml, version 0.6.2
'LLVM version Ubuntu clang version 18.1.3 (1ubuntu1)
@enduml
