@startuml
title Facade Pattern - Class Diagram
left to right direction
class "AirConditioner" as C_0005297640885541804691
class C_0005297640885541804691 {
+turnOff() : void
__
}
class "DeskLamp" as C_0013445017307095445858
class C_0013445017307095445858 {
+turnOff() : void
__
}
class "Television" as C_0004758070758836123981
class C_0004758070758836123981 {
+turnOff() : void
__
}
class "PowerSwitchFacade" as C_0007876684193531823883
class C_0007876684193531823883 {
+PowerSwitchFacade() : void
..
+turnOffDevice(int deviceCode) : void
__
-airConditioner : AirConditioner
-deskLamp : DeskLamp
-television : Television
}
C_0007876684193531823883 o-- C_0013445017307095445858 : -deskLamp
C_0007876684193531823883 o-- C_0005297640885541804691 : -airConditioner
C_0007876684193531823883 o-- C_0004758070758836123981 : -television

'Generated with clang-uml, version 0.6.2
'LLVM version Ubuntu clang version 18.1.3 (1ubuntu1)
@enduml
