@startuml
title Factory Pattern - Class Diagram
left to right direction
class "std::vector<Block *>" as C_0010617914086297329148
class C_0010617914086297329148 {
__
}
class "std::string" as C_0001275076681856179721
class C_0001275076681856179721 {
__
}
class "std::unique_ptr<Product>" as C_0007529584982605911664
class C_0007529584982605911664 {
__
}
class "std::function<std::unique_ptr<Product>()>" as C_0016880707531962026280
class C_0016880707531962026280 {
__
}
class "std::unordered_map<std::string,std::function<std::unique_ptr<Product>()>>" as C_0009434412381319524274
class C_0009434412381319524274 {
__
}
abstract "Block" as C_0001951095593539343111
abstract C_0001951095593539343111 {
+~Block() constexpr = default : void
..
{abstract} +produce() = 0 : void
__
}
abstract "BlockFactory" as C_0011340176577848270373
abstract C_0011340176577848270373 {
+~BlockFactory() constexpr = default : void
..
{abstract} +createBlock() = 0 : Block *
__
}
class "SquareBlock" as C_0001396058128155892773
class C_0001396058128155892773 {
+produce() : void
__
}
class "SquareBlockFactory" as C_0014232187933599446214
class C_0014232187933599446214 {
+createBlock() : Block *
__
}
class "CircleBlock" as C_0005370234941148262030
class C_0005370234941148262030 {
+produce() : void
__
}
class "CircleBlockFactory" as C_0001269899360304888438
class C_0001269899360304888438 {
+createBlock() : Block *
__
}
class "BlockFactorySystem" as C_0008444036734146825933
class C_0008444036734146825933 {
+~BlockFactorySystem() : void
..
+getBlocks() const : const std::vector<Block *> &
+produceBlocks(BlockFactory * factory, int quantity) : void
__
-blocks : std::vector<Block *>
}
abstract "Product" as C_0017206861160651201512
abstract C_0017206861160651201512 {
+~Product() constexpr = default : void
..
{abstract} +use() = 0 : void
__
}
class "Factory" as C_0008686340051264375667
class C_0008686340051264375667 {
+create(const std::string & name) : std::unique_ptr<Product>
{static} +instance() : Factory &
+registerProduct(const std::string & name, Creator creator) : void
__
-creators : std::unordered_map<std::string,Creator>
}
class "Registrar<T>" as C_0007073154736803525692
class C_0007073154736803525692 {
+Registrar(const std::string & name) : void
__
}
class "ProductA" as C_0004056054318527312176
class C_0004056054318527312176 {
+use() : void
__
}
class "ProductB" as C_0017183060334442220715
class C_0017183060334442220715 {
+use() : void
__
}
C_0010617914086297329148 ..> C_0001951095593539343111
C_0007529584982605911664 ..> C_0017206861160651201512
C_0016880707531962026280 ..> C_0007529584982605911664
C_0009434412381319524274 ..> C_0001275076681856179721
C_0009434412381319524274 ..> C_0016880707531962026280
C_0011340176577848270373 ..> C_0001951095593539343111
C_0001951095593539343111 <|-- C_0001396058128155892773
C_0014232187933599446214 ..> C_0001951095593539343111
C_0011340176577848270373 <|-- C_0014232187933599446214
C_0001951095593539343111 <|-- C_0005370234941148262030
C_0001269899360304888438 ..> C_0001951095593539343111
C_0011340176577848270373 <|-- C_0001269899360304888438
C_0008444036734146825933 ..> C_0011340176577848270373
C_0008444036734146825933 ..> C_0001951095593539343111
C_0008444036734146825933 o-- C_0010617914086297329148 : -blocks
C_0008686340051264375667 ..> C_0001275076681856179721
C_0008686340051264375667 ..> C_0016880707531962026280
C_0008686340051264375667 ..> C_0007529584982605911664
C_0008686340051264375667 ..> C_0017206861160651201512
C_0008686340051264375667 o-- C_0009434412381319524274 : -creators
C_0007073154736803525692 ..> C_0001275076681856179721
C_0017206861160651201512 <|-- C_0004056054318527312176
C_0017206861160651201512 <|-- C_0017183060334442220715

'Generated with clang-uml, version 0.6.2
'LLVM version Ubuntu clang version 18.1.3 (1ubuntu1)
@enduml
