@startuml
title Factory Pattern Macro - Class Diagram
left to right direction
abstract "Product" as C_0017206861160651201512
abstract C_0017206861160651201512 {
+~Product() constexpr = default : void
..
{abstract} +use() = 0 : void
__
}
class "Factory" as C_0008686340051264375667
class C_0008686340051264375667 {
+create(const std::string & name) : std::unique_ptr<Product>
{static} +instance() : Factory &
+registerProduct(const std::string & name, Creator creator) : void
__
-creators : std::unordered_map<std::string,Creator>
}
class "Registrar<T>" as C_0007073154736803525692
class C_0007073154736803525692 {
+Registrar(const std::string & name) : void
__
}
class "ProductA" as C_0004056054318527312176
class C_0004056054318527312176 {
+use() : void
__
}
class "ProductB" as C_0017183060334442220715
class C_0017183060334442220715 {
+use() : void
__
}
C_0008686340051264375667 ..> C_0017206861160651201512
C_0008686340051264375667 ..> C_0017206861160651201512 : -creators
C_0017206861160651201512 <|-- C_0004056054318527312176
C_0017206861160651201512 <|-- C_0017183060334442220715

'Generated with clang-uml, version 0.6.2
'LLVM version Ubuntu clang version 18.1.3 (1ubuntu1)
@enduml
