@startuml
title Flyweight Pattern - Class Diagram
left to right direction
class "std::unordered_map<ShapeType,Shape *>" as C_0014274044162663153754
class C_0014274044162663153754 {
__
}
enum "ShapeType" as C_0003224891227402040448
enum C_0003224891227402040448 {
CIRCLE
RECTANGLE
TRIANGLE
}
class "Position" as C_0003696319223639600799
class C_0003696319223639600799 {
+Position(int x, int y) : void
..
+getX() const : int
+getY() const : int
__
-x : int
-y : int
}
abstract "Shape" as C_0013378328829261874241
abstract C_0013378328829261874241 {
+~Shape() : void
..
{abstract} +draw(const Position & position) = 0 : void
__
}
class "ConcreteShape" as C_0012447423546703615167
class C_0012447423546703615167 {
+ConcreteShape(ShapeType shapeType) : void
..
+draw(const Position & position) : void
+setFirstTime(bool firstTime) : void
__
-isFirstTime : bool
-shapeType : ShapeType
}
class "ShapeFactory" as C_0017698528091557022150
class C_0017698528091557022150 {
+~ShapeFactory() : void
..
+getShape(ShapeType type) : Shape *
__
-shapes : std::unordered_map<ShapeType,Shape *>
}
C_0014274044162663153754 ..> C_0003224891227402040448
C_0014274044162663153754 ..> C_0013378328829261874241
C_0013378328829261874241 ..> C_0003696319223639600799
C_0012447423546703615167 ..> C_0003696319223639600799
C_0012447423546703615167 o-- C_0003224891227402040448 : -shapeType
C_0013378328829261874241 <|-- C_0012447423546703615167
C_0017698528091557022150 ..> C_0003224891227402040448
C_0017698528091557022150 ..> C_0013378328829261874241
C_0017698528091557022150 o-- C_0014274044162663153754 : -shapes

'Generated with clang-uml, version 0.6.2
'LLVM version Ubuntu clang version 18.1.3 (1ubuntu1)
@enduml
