@startuml
title Mediator Pattern - Class Diagram
left to right direction
class "std::string" as C_0001275076681856179721
class C_0001275076681856179721 {
__
}
class "std::list<std::string>" as C_0007544740647145351299
class C_0007544740647145351299 {
__
}
class "std::map<std::string,ChatUser *>" as C_0006111808988568244119
class C_0006111808988568244119 {
__
}
abstract "ChatUser" as C_0013883705528856331911
abstract C_0013883705528856331911 {
+ChatUser(const std::string & name, ChatRoomMediator * mediator) : void
..
#addReceivedMessage(const std::string & message) : void
+getName() const : std::string
+getReceivedMessages() const : std::list<std::string>
{abstract} +receiveMessage(const std::string & sender, const std::string & message) = 0 : void
+sendMessage(const std::string & message) : void
__
-mediator : ChatRoomMediator *
-name : std::string
-receivedMessages : std::list<std::string>
}
class "ConcreteChatUser" as C_0017267145772968286667
class C_0017267145772968286667 {
+ConcreteChatUser(const std::string & name, ChatRoomMediator * mediator) : void
..
+receiveMessage(const std::string & sender, const std::string & message) : void
__
}
abstract "ChatRoomMediator" as C_0008272608364631668329
abstract C_0008272608364631668329 {
+~ChatRoomMediator() constexpr = default : void
..
{abstract} +addUser(ChatUser * user) = 0 : void
{abstract} +getUsers() = 0 : std::map<std::string,ChatUser *>
{abstract} +sendMessage(const std::string & sender, const std::string & message) = 0 : void
__
}
class "ChatRoomMediatorImpl" as C_0014544485658919964070
class C_0014544485658919964070 {
+addUser(ChatUser * user) : void
+getUsers() : std::map<std::string,ChatUser *>
+sendMessage(const std::string & sender, const std::string & message) : void
__
-users : std::map<std::string,ChatUser *>
}
C_0007544740647145351299 ..> C_0001275076681856179721
C_0006111808988568244119 ..> C_0001275076681856179721
C_0006111808988568244119 ..> C_0013883705528856331911
C_0013883705528856331911 o-- C_0001275076681856179721 : -name
C_0013883705528856331911 --> C_0008272608364631668329 : -mediator
C_0013883705528856331911 o-- C_0007544740647145351299 : -receivedMessages
C_0017267145772968286667 ..> C_0001275076681856179721
C_0017267145772968286667 ..> C_0008272608364631668329
C_0013883705528856331911 <|-- C_0017267145772968286667
C_0008272608364631668329 ..> C_0001275076681856179721
C_0008272608364631668329 ..> C_0013883705528856331911
C_0008272608364631668329 ..> C_0006111808988568244119
C_0014544485658919964070 ..> C_0001275076681856179721
C_0014544485658919964070 ..> C_0013883705528856331911
C_0014544485658919964070 o-- C_0006111808988568244119 : -users
C_0008272608364631668329 <|-- C_0014544485658919964070

'Generated with clang-uml, version 0.6.2
'LLVM version Ubuntu clang version 18.1.3 (1ubuntu1)
@enduml
