@startuml
title Memento Pattern - Class Diagram
left to right direction
class "std::stack<Memento>" as C_0001108405105831942975
class C_0001108405105831942975 {
__
}
class "Memento" as C_0011772707663170284999
class C_0011772707663170284999 {
+Memento(int val) : void
..
+getValue() const : int
__
-value : int
}
class "Counter" as C_0008400658022057850941
class C_0008400658022057850941 {
+decrement() : void
+getValue() const : int
+increment() : void
+redo() : void
+undo() : void
__
-redoStack : std::stack<Memento>
-undoStack : std::stack<Memento>
-value : int
}
C_0001108405105831942975 ..> C_0011772707663170284999
C_0008400658022057850941 o-- C_0001108405105831942975 : -undoStack
C_0008400658022057850941 o-- C_0001108405105831942975 : -redoStack

'Generated with clang-uml, version 0.6.2
'LLVM version Ubuntu clang version 18.1.3 (1ubuntu1)
@enduml
