@startuml
title Strategy Pattern - Class Diagram
left to right direction
abstract "DiscountStrategy" as C_0011233413311405851161
abstract C_0011233413311405851161 {
+~DiscountStrategy() constexpr = default : void
..
{abstract} +applyDiscount(int originalPrice) = 0 : int
__
}
class "DiscountStrategy1" as C_0017275947444821151795
class C_0017275947444821151795 {
+applyDiscount(int originalPrice) : int
__
}
class "DiscountStrategy2" as C_0008253973125637612742
class C_0008253973125637612742 {
+applyDiscount(int originalPrice) : int
__
-discounts : int[4]
-thresholds : int[4]
}
class "DiscountContext" as C_0010223099788765944701
class C_0010223099788765944701 {
+applyDiscount(int originalPrice) : int
+setDiscountStrategy(DiscountStrategy * discountStrategy) : void
__
-discountStrategy : DiscountStrategy *
}
C_0011233413311405851161 <|-- C_0017275947444821151795
C_0011233413311405851161 <|-- C_0008253973125637612742
C_0010223099788765944701 --> C_0011233413311405851161 : -discountStrategy

'Generated with clang-uml, version 0.6.2
'LLVM version Ubuntu clang version 18.1.3 (1ubuntu1)
@enduml
