@startuml
title Template Method Pattern - Class Diagram
left to right direction
abstract "CoffeeMakerTemplate" as C_0016472824982649595688
abstract C_0016472824982649595688 {
+CoffeeMakerTemplate(const std::string & coffeeName) : void
..
+addCondiments() : void
{abstract} +brewCoffee() = 0 : void
{abstract} +grindCoffeeBeans() = 0 : void
+makeCoffee() : void
__
-coffeeName : std::string
}
class "AmericanCoffeeMaker" as C_0002202946262824726598
class C_0002202946262824726598 {
+AmericanCoffeeMaker() : void
..
+brewCoffee() : void
+grindCoffeeBeans() : void
__
}
class "LatteCoffeeMaker" as C_0003124476457319656333
class C_0003124476457319656333 {
+LatteCoffeeMaker() : void
..
+addCondiments() : void
+brewCoffee() : void
+grindCoffeeBeans() : void
__
}
C_0016472824982649595688 <|-- C_0002202946262824726598
C_0016472824982649595688 <|-- C_0003124476457319656333

'Generated with clang-uml, version 0.6.2
'LLVM version Ubuntu clang version 18.1.3 (1ubuntu1)
@enduml
